<svg version="1.1" id="Layer_1" xmlns="http://www.w3.org/2000/svg" xmlns:xlink="http://www.w3.org/1999/xlink" x="0px" y="0px"
     width="100%" viewBox="0 0 400 400" enable-background="new 0 0 400 400" xml:space="preserve">
<path fill="#FEFFFE" opacity="1.000000" stroke="none"
      d="
M222.000000,401.000000
	C148.022964,401.000000 74.545929,401.000000 1.034447,401.000000
	C1.034447,267.731293 1.034447,134.462585 1.034447,1.096937
	C134.226990,1.096937 267.454071,1.096937 400.840576,1.096937
	C400.840576,134.333176 400.840576,267.666565 400.840576,401.000000
	C341.462677,401.000000 281.981323,401.000000 222.000000,401.000000
M178.226990,338.249725
	C178.226990,338.249725 178.536484,338.334167 178.536484,338.334167
	C178.536484,338.334167 178.710968,338.065216 179.612228,338.420166
	C183.730377,338.645782 187.848541,338.871399 192.670197,339.513062
	C197.457520,339.362335 202.244843,339.211578 207.891449,339.248627
	C209.920364,339.058044 211.949280,338.867432 214.718475,338.877686
	C216.137711,338.565613 217.556961,338.253571 219.742935,338.045532
	C220.491241,337.885162 221.239548,337.724792 222.663422,337.756195
	C223.777481,337.437653 224.891541,337.119141 226.745056,336.852631
	C228.161880,336.422272 229.578690,335.991882 231.742340,335.694763
	C235.494553,334.128265 239.246750,332.561737 243.671387,331.108826
	C244.467865,330.794403 245.264343,330.479980 246.669693,330.009705
	C246.962387,329.716553 247.255081,329.423431 248.201553,329.210541
	C249.837036,328.204529 251.472504,327.198547 253.725403,326.074921
	C254.875717,325.196960 256.026031,324.319000 257.801422,323.229553
	C258.625366,322.523987 259.449341,321.818420 260.820923,321.037018
	C261.208313,320.675232 261.595734,320.313416 262.654358,319.862457
	C283.666412,302.742554 294.418823,280.828369 292.739105,253.556183
	C292.158417,244.128647 290.366364,234.704529 283.889740,226.419037
	C283.522614,225.970612 283.155487,225.522186 282.763000,224.422226
	C281.883087,223.528275 281.003174,222.634323 279.887878,221.239182
	C279.507050,220.839310 279.126190,220.439453 278.599091,219.394867
	C273.349030,213.570557 271.742401,213.042236 267.044342,216.062897
	C266.331421,216.644226 265.618469,217.225555 264.182129,217.922897
	C259.089508,220.826904 253.996872,223.730911 248.257187,226.956192
	C244.150543,229.258224 240.043900,231.560257 235.330750,233.932739
	C234.522903,234.513596 233.715042,235.094452 232.275909,235.887482
	C231.990570,236.217819 231.705231,236.548157 230.731674,236.801895
	C223.949295,240.797394 217.166916,244.792877 209.709000,248.795517
	C207.747177,250.170151 205.785355,251.544769 203.170029,252.785706
	C202.112808,253.535645 201.055573,254.285583 199.275192,254.998215
	C197.433273,255.979401 195.555786,256.899780 193.756027,257.953003
	C188.121704,261.250153 182.516693,264.597443 176.991333,267.972717
	C176.991333,267.972717 176.932556,267.888580 176.197235,267.965179
	C170.806488,270.334045 165.415756,272.702911 159.297668,275.063568
	C158.871124,275.279266 158.444595,275.494965 157.292786,275.543091
	C153.870758,276.383820 150.448715,277.224518 146.340225,277.944427
	C145.894623,278.055664 145.449020,278.166901 144.084442,278.109772
	C139.388947,278.190369 134.693436,278.270935 129.355804,278.076904
	C128.896088,278.070679 128.436371,278.064484 127.366699,277.614258
	C124.244179,277.089294 121.121666,276.564331 117.485901,275.628510
	C116.645187,275.451996 115.804474,275.275482 114.466728,274.596710
	C110.952591,273.300812 107.438454,272.004913 103.741333,270.669220
	C103.741333,270.669220 103.640114,270.826752 103.253754,270.224701
	C102.811218,270.069000 102.368683,269.913300 101.770325,269.702606
	C101.770325,269.702606 101.654839,269.820801 101.318817,269.221405
	C100.909554,269.031769 100.500282,268.842163 99.741234,268.163727
	C98.841385,267.769592 97.941536,267.375427 96.717735,266.390869
	C94.143463,264.971771 91.569191,263.552704 88.413170,261.776031
	C86.298187,260.175354 84.183212,258.574677 82.016060,256.291809
	C79.400642,253.849640 76.785233,251.407471 74.169823,248.965286
	C73.745110,249.281494 73.320389,249.597687 72.895676,249.913895
	C74.315826,252.929520 75.735977,255.945160 77.286255,259.676331
	C77.554100,260.076355 77.821953,260.476410 77.909027,261.294434
	C78.212349,261.634949 78.515671,261.975494 78.974045,262.756104
	C78.974045,262.756104 79.355972,263.024200 79.405632,263.639648
	C79.605453,264.421295 79.805275,265.202911 80.044327,266.015289
	C80.044327,266.015289 80.075600,265.976471 80.062973,266.539764
	C80.356155,266.750916 80.649345,266.962067 81.079323,267.624603
	C81.079323,267.624603 81.395752,267.974335 81.496979,268.636780
	C86.000755,275.374176 90.504539,282.111572 95.151619,289.120819
	C95.151619,289.120819 95.458359,289.139832 95.661705,289.826477
	C97.452942,291.860748 99.244186,293.895050 100.997459,295.985229
	C100.997459,295.985229 101.063103,295.969238 101.197113,296.601959
	C102.450653,297.769897 103.704193,298.937836 105.069260,300.569550
	C105.243019,300.871033 105.503441,301.034241 106.099617,301.662720
	C107.396957,302.778015 108.694290,303.893311 110.000000,305.000000
	C110.000000,305.000000 109.991508,305.008484 110.280136,305.606354
	C112.870575,307.682556 115.461006,309.758789 118.389511,312.417389
	C121.409798,314.342468 124.430084,316.267548 127.808662,318.810242
	C131.835907,321.006165 135.863174,323.202087 140.270935,325.872314
	C141.184204,326.238892 142.097473,326.605438 143.446411,327.514374
	C153.943161,330.708282 164.439896,333.902191 174.907455,337.108276
	C174.907455,337.108276 174.908203,337.139923 175.375626,337.628143
	C176.260803,337.730499 177.145981,337.832886 178.047470,338.001678
	C178.047470,338.001678 178.095291,337.952759 178.226990,338.249725
M99.860832,107.782852
	C99.860832,107.782852 99.685043,107.695351 99.100037,107.854095
	C98.643272,108.486160 98.186501,109.118225 97.738197,109.916725
	C97.738197,109.916725 97.778603,109.755051 97.263199,109.972786
	C97.177467,110.315849 97.091736,110.658920 96.673187,111.577431
	C94.716469,113.921440 92.759758,116.265450 90.218002,118.960732
	C86.162750,126.310135 82.107498,133.659531 77.813644,141.254471
	C77.813644,141.254471 77.792130,141.596146 77.273613,142.044022
	C77.123253,142.698212 76.972893,143.352417 76.653992,144.200806
	C76.653992,144.200806 76.713974,144.450836 76.155281,144.866867
	C75.563774,146.594193 74.972267,148.321503 74.040009,150.574249
	C73.908928,151.179489 73.777855,151.784729 73.191490,152.808823
	C73.133461,153.205994 73.075432,153.603165 72.808929,154.466263
	C72.780342,154.801956 72.751755,155.137650 72.219696,155.829086
	C72.070221,156.569809 71.920746,157.310516 71.358727,158.642776
	C71.291862,159.113342 71.224991,159.583893 70.673492,160.618332
	C67.758362,169.934967 67.290871,179.385956 69.042122,189.816223
	C69.310112,191.192505 69.578102,192.568802 69.583038,194.445587
	C69.773399,194.947220 69.963760,195.448837 70.122223,196.648346
	C70.285851,197.078720 70.449478,197.509079 70.413490,198.686005
	C71.313225,201.776031 72.212967,204.866043 73.164558,208.689316
	C73.418419,209.103897 73.672279,209.518494 73.775826,210.419907
	C74.073547,210.815689 74.371269,211.211472 74.649261,212.111023
	C74.809174,212.401352 74.969086,212.691696 75.100220,213.697784
	C76.112366,215.705704 77.124519,217.713638 78.075836,219.862152
	C78.075836,219.862152 78.222389,219.906769 78.209824,220.573044
	C79.046867,221.800644 79.883911,223.028229 80.924004,224.155411
	C80.924004,224.155411 80.702492,224.202759 80.788712,224.847610
	C81.446342,225.644287 82.103966,226.440948 82.895393,227.128555
	C82.895393,227.128555 82.729347,227.175766 82.785446,227.847458
	C83.871376,229.208649 84.957298,230.569855 86.000366,231.990005
	C86.000366,231.990005 86.068161,231.963226 86.130455,232.580673
	C86.720230,233.116699 87.309998,233.652740 88.164047,234.789581
	C90.350037,236.906387 92.536026,239.023178 94.974503,241.773911
	C96.608902,242.948334 98.243301,244.122757 100.180641,245.778656
	C100.971214,246.263885 101.761787,246.749115 102.862244,247.790588
	C103.589973,248.159958 104.317711,248.529312 105.036240,248.979431
	C105.036240,248.979431 105.108765,248.942749 105.414787,249.536148
	C113.017448,254.179306 120.980446,257.820312 130.815796,258.677399
	C131.904236,258.704437 132.992661,258.731445 134.613968,259.187714
	C136.379074,259.041718 138.144196,258.895721 140.719299,258.884521
	C141.796616,258.740845 142.873917,258.597198 144.674576,258.705536
	C146.778992,258.127106 148.883408,257.548645 151.651108,256.996216
	C152.429779,256.624481 153.208466,256.252777 154.669098,255.837875
	C155.613205,253.871506 156.557327,251.905136 157.728333,249.145752
	C157.675003,247.780197 157.621674,246.414658 157.845108,244.256149
	C157.752182,243.154663 157.659256,242.053177 157.770523,240.080978
	C157.709274,237.403168 157.648026,234.725357 157.864777,231.139465
	C157.757950,215.075775 157.651123,199.012100 157.745041,182.237503
	C157.677368,181.509293 157.609695,180.781067 157.837418,179.147949
	C157.871475,176.331207 157.958939,173.513931 157.931046,170.697815
	C157.720947,149.479507 157.006912,128.196991 166.204315,107.981667
	C166.204315,107.981667 166.271591,108.260765 166.851379,107.989586
	C167.535690,106.655067 168.220001,105.320557 169.138733,103.715851
	C169.138733,103.715851 169.170486,103.359558 169.755417,103.034157
	C170.280212,102.071854 170.805008,101.109550 171.721130,99.944115
	C171.958954,99.737839 172.078476,99.477295 172.668869,98.836815
	C186.407944,81.988113 204.561371,72.042000 225.960587,65.568253
	C224.020935,64.947571 223.125900,64.558128 222.190552,64.377342
	C208.494583,61.730080 194.704727,61.334785 180.942505,63.469723
	C167.779709,65.511673 154.799255,68.390915 142.361969,75.139870
	C141.595566,75.592331 140.829178,76.044792 139.475739,76.398270
	C138.531296,77.055367 137.586868,77.712463 136.050385,78.530876
	C135.709976,78.753723 135.369568,78.976570 134.359344,79.205383
	C133.076416,80.058624 131.793488,80.911865 129.918915,81.881920
	C128.945175,82.585052 127.971436,83.288193 126.367294,84.041504
	C125.577858,84.693466 124.788414,85.345436 124.000000,86.000000
	C124.000000,86.000000 123.997383,85.998459 123.364441,86.041428
	C122.583572,86.695412 121.802704,87.349403 120.507309,88.293503
	C120.111702,88.716675 119.716095,89.139847 118.742325,89.624100
	C118.169891,90.105186 117.597458,90.586273 116.362602,91.171104
	C114.396355,93.025574 112.430107,94.880043 110.175804,96.784859
	C110.175804,96.784859 110.007141,97.023743 109.341713,97.126968
	C106.577675,100.094337 103.813637,103.061707 100.997429,106.004494
	C100.997429,106.004494 101.032265,106.050591 100.470726,106.246986
	C100.202286,106.752556 99.933838,107.258125 99.860832,107.782852
M181.933899,137.059708
	C181.933899,137.059708 181.858948,137.117432 182.167526,137.680328
	C183.110001,138.125687 184.052475,138.571045 185.277710,139.509949
	C185.965118,139.756271 186.652542,140.002594 187.708817,140.845749
	C189.126968,141.597580 190.545135,142.349426 192.267105,143.650360
	C193.189316,144.071167 194.111511,144.491989 195.386658,145.387177
	C195.927383,145.580963 196.468124,145.774750 197.304138,146.452881
	C197.997482,146.702377 198.690811,146.951889 199.713562,147.781387
	C200.475220,148.164368 201.236862,148.547348 202.462204,149.369980
	C203.780212,149.984207 205.098221,150.598450 206.793869,151.844101
	C207.880783,152.352493 208.967697,152.860870 210.270737,153.696365
	C210.270737,153.696365 210.655106,153.773666 210.957672,154.314148
	C217.292038,157.908783 223.626404,161.503403 230.283386,165.596878
	C230.832855,165.789597 231.382309,165.982300 232.319214,166.721786
	C234.128708,167.661621 235.938202,168.601456 238.077789,170.082092
	C250.020660,176.840927 261.963531,183.599762 274.209625,190.925156
	C278.751556,194.306549 283.293488,197.687943 288.077972,201.705124
	C292.674194,207.162399 297.270447,212.619690 301.979218,218.654068
	C302.326691,219.101013 302.674164,219.547943 303.084442,220.652191
	C303.675751,221.283173 304.267059,221.914154 304.757965,223.056976
	C304.874329,223.380966 304.990662,223.704956 305.163269,224.571503
	C305.412933,224.827072 305.662598,225.082657 305.858673,225.849426
	C306.103027,226.283157 306.347382,226.716888 306.715576,227.881058
	C307.435089,229.924179 308.154602,231.967285 308.827026,234.518036
	C308.882477,234.678650 308.937958,234.839279 309.003204,235.663406
	C309.121704,236.087830 309.240204,236.512253 309.200989,237.711212
	C309.849792,240.121536 310.498596,242.531876 311.077942,245.627289
	C311.168640,246.075043 311.259308,246.522781 311.146576,247.850906
	C312.645203,261.418671 311.326904,274.811035 308.948669,288.475281
	C314.836548,281.254822 320.445251,273.917664 325.063202,266.002441
	C331.586517,254.821487 336.682220,242.954803 338.836151,229.327423
	C338.856659,228.872208 338.877197,228.417007 339.435852,227.442154
	C339.852020,224.619629 340.268219,221.797089 340.871704,218.192612
	C340.902191,217.124268 340.932678,216.055923 341.464447,214.337906
	C341.600098,206.240585 341.803192,198.143158 341.787811,190.046112
	C341.785858,189.008606 340.647095,187.973282 340.101440,186.088928
	C339.528320,182.681671 338.955170,179.274429 338.254120,175.027649
	C337.295471,165.157974 335.050873,155.667328 330.013702,146.406387
	C329.700500,145.927063 329.387299,145.447739 329.036224,144.376343
	C328.718903,143.905807 328.401581,143.435272 328.031799,142.303589
	C327.377136,141.191620 326.722473,140.079651 325.987915,138.256210
	C323.374512,134.157272 320.761108,130.058319 317.996338,125.276352
	C312.723907,119.150375 307.451477,113.024399 301.975006,106.255424
	C284.055847,90.115891 263.065521,82.774956 238.182083,84.130760
	C228.406082,85.380348 218.744370,86.996368 209.932114,92.687119
	C209.561447,92.942940 209.190781,93.198761 208.128571,93.627205
	C206.579102,94.696831 205.029648,95.766457 203.188950,96.799927
	C203.188950,96.799927 203.000290,97.024734 202.365860,97.105385
	C201.777878,97.689545 201.189911,98.273712 199.967682,99.015869
	C195.601868,103.649940 191.236053,108.284004 186.952988,112.986526
	C186.952988,112.986526 186.916351,112.885574 186.291351,113.182014
	C182.741058,119.435753 178.716568,125.525269 179.345062,133.895157
	C179.802460,134.627594 180.259857,135.360031 180.909729,136.651947
	C181.251556,136.819397 181.593399,136.986847 181.933899,137.059708
z"/>
    <path fill="#65BC48" opacity="1.000000" stroke="none"
          d="
M143.951233,258.453522
	C142.873917,258.597198 141.796616,258.740845 140.059845,258.581543
	C137.627304,258.438538 135.854202,258.598480 134.081100,258.758453
	C132.992661,258.731445 131.904236,258.704437 130.294800,258.229614
	C124.831985,256.184540 119.856735,254.682190 114.959991,252.956985
	C111.619476,251.780045 108.388641,250.291809 105.108765,248.942749
	C105.108765,248.942749 105.036240,248.979431 104.968781,248.594696
	C104.118324,247.884766 103.335342,247.559555 102.552361,247.234344
	C101.761787,246.749115 100.971214,246.263885 99.956070,245.189987
	C98.061668,243.447540 96.391846,242.293762 94.722015,241.139984
	C92.536026,239.023178 90.350037,236.906387 88.043518,234.151672
	C87.304718,232.996918 86.686440,232.480072 86.068161,231.963226
	C86.068161,231.963226 86.000366,231.990005 86.021332,231.606293
	C84.937981,229.873642 83.833664,228.524704 82.729347,227.175766
	C82.729347,227.175766 82.895393,227.128555 82.890404,226.831451
	C82.157776,225.757141 81.430138,224.979950 80.702499,224.202759
	C80.702492,224.202759 80.924004,224.155411 80.914673,223.837372
	C80.011024,222.315155 79.116699,221.110962 78.222382,219.906769
	C78.222389,219.906769 78.075836,219.862152 78.086655,219.421478
	C77.107979,216.981216 76.118484,214.981628 75.128998,212.982025
	C74.969086,212.691696 74.809174,212.401352 74.727051,211.602081
	C74.511932,210.706467 74.219040,210.319763 73.926140,209.933075
	C73.672279,209.518494 73.418419,209.103897 73.394112,208.064606
	C72.620148,204.273087 71.616631,201.106277 70.613106,197.939453
	C70.449478,197.509079 70.285851,197.078720 70.330811,196.172363
	C70.308296,195.112625 70.077194,194.528854 69.846092,193.945084
	C69.578102,192.568802 69.310112,191.192505 69.353180,189.082123
	C69.782455,182.232010 69.900673,176.116013 70.389755,169.992737
	C78.006714,165.893417 77.999496,165.895523 79.615555,171.437668
	C79.669708,171.623413 80.185829,171.674454 80.486610,171.788269
	C82.970665,170.393158 85.382607,170.052109 87.801773,169.989227
	C91.532074,169.892258 95.267319,169.985809 99.410088,170.050842
	C101.931053,170.402115 104.041878,170.939545 106.153862,170.944153
	C109.325844,170.951065 111.994759,171.148300 113.286194,174.854813
	C113.648491,175.894623 115.790955,176.793060 117.183571,176.901810
	C120.812088,177.185135 124.521645,177.349289 128.117065,176.902527
	C132.480911,176.360260 137.553314,176.244186 140.835663,173.882172
	C143.647903,171.858490 145.148071,170.566742 147.322632,172.591537
	C152.108307,170.468597 155.147934,167.632431 154.221405,162.340469
	C154.163010,162.007019 155.380783,161.450150 156.008255,161.465698
	C156.012558,166.560074 155.895477,171.190826 156.084457,175.809052
	C156.143066,177.241135 157.032791,178.639221 157.542023,180.052856
	C157.609695,180.781067 157.677368,181.509293 157.295959,182.743454
	C156.579315,183.827438 156.079987,184.404694 156.078064,184.983612
	C156.028839,199.759857 156.003937,214.536423 156.092331,229.312241
	C156.097794,230.226959 157.066330,231.135910 157.586792,232.047546
	C157.648026,234.725357 157.709274,237.403168 157.370743,240.610214
	C157.170090,242.442673 157.369217,243.745880 157.568329,245.049103
	C157.621674,246.414658 157.675003,247.780197 157.316803,249.641449
	C155.932556,252.051804 154.959854,253.966431 153.987152,255.881073
	C153.208466,256.252777 152.429779,256.624481 151.085022,256.720703
	C148.329697,257.114594 146.140457,257.784058 143.951233,258.453522
z"/>
    <path fill="#69BD47" opacity="1.000000" stroke="none"
          d="
M82.068237,256.973999
	C84.183212,258.574677 86.298187,260.175354 88.749001,262.303101
	C91.737114,264.213898 94.389397,265.597595 97.041687,266.981293
	C97.941536,267.375427 98.841385,267.769592 100.053955,268.736877
	C100.796066,269.480286 101.225456,269.650543 101.654839,269.820801
	C101.654839,269.820801 101.770325,269.702606 102.042023,270.034607
	C102.755852,270.520020 103.197983,270.673370 103.640114,270.826752
	C103.640114,270.826752 103.741333,270.669220 104.007637,271.012207
	C106.149986,272.565826 108.439209,273.431732 109.804443,275.068451
	C111.811028,277.473999 113.238945,276.760101 114.963753,275.098999
	C115.804474,275.275482 116.645187,275.451996 117.793869,276.216553
	C120.976234,280.508514 124.483360,279.228882 127.976646,278.058289
	C128.436371,278.064484 128.896088,278.070679 129.803711,278.576050
	C135.241226,280.148590 140.242218,281.432251 145.003433,278.278137
	C145.449020,278.166901 145.894623,278.055664 146.954987,278.279022
	C151.484634,279.201263 155.354355,279.626312 158.018066,275.710663
	C158.444595,275.494965 158.871124,275.279266 159.832092,275.378265
	C161.951599,275.855560 163.789703,276.609192 165.070480,276.060913
	C167.967773,274.820679 170.656693,273.037842 173.296692,271.275421
	C174.656357,270.367737 175.729782,269.031281 176.932556,267.888580
	C176.932556,267.888580 176.991333,267.972717 177.336731,267.981964
	C181.059891,269.333374 184.437653,270.675568 188.144806,272.148621
	C186.675934,274.253235 183.989563,276.372620 184.254425,278.016510
	C185.531403,285.942352 179.960220,291.890442 178.887512,299.144775
	C177.730743,306.967438 175.010422,314.558899 172.895569,322.540466
	C173.770706,322.790344 175.257767,323.214935 176.744812,323.639526
	C177.284546,324.304565 177.824265,324.969604 178.363998,325.634674
	C176.526077,326.484589 174.688156,327.334503 172.402481,328.391510
	C175.060089,331.136230 179.524338,332.326843 177.607758,336.953247
	C176.449829,337.021210 175.679016,337.080566 174.908203,337.139923
	C174.908203,337.139923 174.907455,337.108276 174.869995,336.709534
	C174.519943,335.947906 174.271973,335.369904 173.885269,335.253754
	C165.573715,332.757416 157.260132,330.265259 148.912338,327.894073
	C147.011230,327.354034 144.981354,327.267334 143.010742,326.971985
	C142.097473,326.605438 141.184204,326.238892 140.007217,325.283142
	C138.043427,323.177185 136.098724,321.854919 134.701096,320.097565
	C132.650375,317.518982 130.381119,316.877441 127.450378,318.192627
	C124.430084,316.267548 121.409798,314.342468 118.206696,311.742981
	C117.593727,306.069855 113.741623,305.606750 109.991508,305.008484
	C109.991508,305.008484 110.000000,305.000000 109.999733,304.600800
	C110.325218,300.898102 108.185516,300.849701 105.850533,301.059113
	C105.503441,301.034241 105.243019,300.871033 105.025352,299.955200
	C103.675331,298.217010 102.369217,297.093109 101.063103,295.969238
	C101.063103,295.969238 100.997459,295.985229 101.006058,295.597351
	C99.162552,293.186279 97.310455,291.163055 95.458359,289.139832
	C95.458359,289.139832 95.151619,289.120819 95.076431,288.624939
	C94.860886,287.489838 94.865273,286.768921 94.557899,286.223846
	C91.272415,280.397522 88.005249,274.557831 84.526375,268.847717
	C84.114517,268.171722 82.469269,268.247192 81.395752,267.974335
	C81.395752,267.974335 81.079323,267.624603 80.942238,267.151306
	C80.561974,266.444183 80.318787,266.210327 80.075600,265.976471
	C80.075600,265.976471 80.044327,266.015289 80.073372,265.676300
	C79.853600,264.566284 79.604790,263.795227 79.355972,263.024200
	C79.355972,263.024200 78.974045,262.756104 78.947052,262.309082
	C78.643303,261.533539 78.366554,261.204987 78.089798,260.876434
	C77.821953,260.476410 77.554100,260.076355 77.436646,259.116638
	C77.587044,257.513763 77.587044,256.470612 77.587044,255.183914
	C79.207306,255.831161 80.637764,256.402588 82.068237,256.973999
z"/>
    <path fill="#5EBB4D" opacity="1.000000" stroke="none"
          d="
M99.000465,169.998535
	C95.267319,169.985809 91.532074,169.892258 87.801773,169.989227
	C85.382607,170.052109 82.970665,170.393158 80.486610,171.788269
	C80.185829,171.674454 79.669708,171.623413 79.615555,171.437668
	C77.999496,165.895523 78.006714,165.893417 70.426559,169.611221
	C70.447693,166.176132 70.802910,163.115295 71.158127,160.054459
	C71.224991,159.583893 71.291862,159.113342 71.832840,158.204376
	C72.445686,157.001755 72.584427,156.237549 72.723167,155.473343
	C72.751755,155.137650 72.780342,154.801956 73.152771,154.032318
	C73.546677,153.195557 73.596733,152.792770 73.646790,152.389969
	C73.777855,151.784729 73.908928,151.179489 74.538551,150.212036
	C75.596054,148.050171 76.155014,146.250504 76.713974,144.450836
	C76.713974,144.450836 76.653992,144.200806 77.039780,143.912354
	C77.547752,142.947968 77.669937,142.272064 77.792130,141.596146
	C77.792130,141.596146 77.813644,141.254471 78.280350,141.079498
	C80.657440,137.890244 82.760880,134.978607 84.431305,131.836761
	C86.726952,127.518967 88.694763,123.026871 90.803040,118.609467
	C92.759758,116.265450 94.716469,113.921440 97.069305,111.155273
	C97.569817,110.407097 97.674210,110.081078 97.778603,109.755051
	C97.778603,109.755051 97.738197,109.916725 98.102234,109.877548
	C98.872536,109.124039 99.278786,108.409691 99.685043,107.695351
	C99.685043,107.695351 99.860832,107.782852 100.076942,107.729218
	C100.539459,107.133911 100.785866,106.592255 101.032272,106.050598
	C101.032265,106.050591 100.997429,106.004494 101.385445,106.014336
	C106.004341,104.383736 109.151398,101.751793 110.007141,97.023743
	C110.007141,97.023743 110.175804,96.784859 110.721115,96.817940
	C113.894539,95.628639 117.564873,95.443962 117.025024,91.067352
	C117.597458,90.586273 118.169891,90.105186 119.379066,89.821442
	C121.662056,91.244408 123.308304,92.470032 124.954559,93.695648
	C124.626984,91.782394 124.299408,89.869133 123.983810,87.629906
	C123.996323,86.868774 123.996849,86.433617 123.997375,85.998459
	C123.997383,85.998459 124.000000,86.000000 124.373276,86.014862
	C125.494278,86.011398 126.241997,85.993073 127.058464,86.338364
	C130.273544,86.701973 133.419891,86.701973 137.079788,86.701973
	C136.770111,88.065781 136.655441,89.355301 136.184128,90.497681
	C134.825302,93.791306 132.991501,96.931168 132.023773,100.325180
	C131.576706,101.893127 132.478561,104.008293 133.183655,105.702728
	C134.156708,108.041084 135.663055,110.154427 136.681122,112.477997
	C137.779312,114.984428 138.027466,118.134338 139.745621,119.980644
	C140.570694,120.867256 143.926483,119.398827 147.160294,118.810661
	C147.471283,119.421432 148.882935,120.929688 148.830750,122.385460
	C148.751022,124.609138 147.660278,126.796570 146.609833,129.000092
	C144.230286,130.231827 142.224304,131.438950 140.254990,132.703201
	C139.140076,133.418930 137.997177,134.985672 137.017944,134.871658
	C131.076172,134.179901 126.869064,135.557083 126.258820,142.370529
	C126.217613,142.830551 125.921158,143.357101 125.582497,143.688019
	C117.209763,151.869202 112.597588,163.973511 100.227692,168.026459
	C99.663780,168.211212 99.402626,169.320084 99.000465,169.998535
M127.797668,95.391182
	C127.793480,95.785652 127.789284,96.180115 127.785088,96.574585
	C127.948784,96.576111 128.254761,96.588600 128.255615,96.577568
	C128.285889,96.185051 128.287582,95.790314 127.797668,95.391182
z"/>
    <path fill="#60BC53" opacity="1.000000" stroke="none"
          d="
M146.998779,128.999390
	C147.660278,126.796570 148.751022,124.609138 148.830750,122.385460
	C148.882935,120.929688 147.471283,119.421432 147.160294,118.810661
	C143.926483,119.398827 140.570694,120.867256 139.745621,119.980644
	C138.027466,118.134338 137.779312,114.984428 136.681122,112.477997
	C135.663055,110.154427 134.156708,108.041084 133.183655,105.702728
	C132.478561,104.008293 131.576706,101.893127 132.023773,100.325180
	C132.991501,96.931168 134.825302,93.791306 136.184128,90.497681
	C136.655441,89.355301 136.770111,88.065781 137.079788,86.701973
	C133.419891,86.701973 130.273544,86.701973 127.063034,86.008133
	C126.998482,84.873306 126.998100,84.432320 126.997711,83.991333
	C127.971436,83.288193 128.945175,82.585052 130.605896,81.891129
	C132.538315,81.000038 133.783737,80.099731 135.029160,79.199417
	C135.369568,78.976570 135.709976,78.753723 136.427582,78.636963
	C136.804779,78.743050 137.006897,79.093498 136.999756,79.450661
	C136.867966,80.453781 136.558289,81.130974 136.660873,81.738564
	C136.825623,82.714386 137.263000,83.644196 137.585175,84.593445
	C138.379257,83.767433 139.586746,83.052109 139.846176,82.082985
	C140.085297,81.189766 139.306076,80.023933 139.085403,78.726486
	C139.484528,77.815605 139.773651,77.156433 140.062775,76.497253
	C140.829178,76.044792 141.595566,75.592331 142.923431,75.359756
	C144.271896,75.436142 145.117294,75.431488 145.837250,75.128601
	C159.652054,69.316559 173.948318,65.380501 188.930603,64.273354
	C190.853256,64.131271 192.848587,64.972862 194.810257,65.358772
	C194.259583,67.174599 194.264465,69.886543 193.053482,70.637291
	C189.497940,72.841560 188.432526,75.992088 187.864639,79.703514
	C187.722321,80.633629 187.249573,81.725540 186.563263,82.324089
	C183.212677,85.246185 179.899567,88.258736 176.258286,90.785492
	C173.174637,92.925308 171.682205,95.474144 172.079697,99.162498
	C172.078476,99.477295 171.958954,99.737839 171.128464,100.046944
	C170.080688,101.219696 169.625580,102.289627 169.170486,103.359558
	C169.170486,103.359558 169.138733,103.715851 168.680389,103.905289
	C167.571899,105.483406 166.921753,106.872086 166.271606,108.260773
	C166.271591,108.260765 166.204315,107.981667 165.867035,108.084641
	C163.693970,112.196884 161.959351,116.257698 159.959381,120.183319
	C159.376282,121.327850 158.036194,122.086723 156.732422,122.891136
	C152.539230,122.971771 150.885117,125.964378 152.246689,129.941101
	C152.622787,131.039536 152.810959,132.736115 152.225037,133.486465
	C151.583923,134.307465 149.745972,134.907211 148.802109,134.567749
	C147.944382,134.259277 147.454788,132.606339 147.055984,131.458191
	C146.799896,130.720917 147.002029,129.824478 146.998779,128.999390
M164.396835,102.201530
	C164.787903,102.205727 165.178986,102.209915 165.570053,102.214111
	C165.571716,102.051842 165.584229,101.748512 165.573441,101.747681
	C165.184265,101.717705 164.792908,101.715927 164.396835,102.201530
z"/>
    <path fill="#78C14E" opacity="1.000000" stroke="none"
          d="
M203.823532,252.919373
	C205.785355,251.544769 207.747177,250.170151 210.465057,248.833649
	C215.882965,247.396027 220.544800,245.920288 226.304230,244.097092
	C225.010040,249.705292 222.602066,253.953201 223.555954,257.219238
	C225.977798,265.511505 222.778961,272.765289 221.397476,280.423279
	C220.405685,285.921143 219.447906,291.469513 219.127274,297.032959
	C218.717697,304.139557 219.202362,311.295532 218.857010,318.408630
	C218.555786,324.612823 217.637894,330.787109 216.659607,336.985168
	C215.543900,337.556091 214.761047,338.116455 213.978195,338.676849
	C211.949280,338.867432 209.920364,339.058044 207.200562,338.864197
	C204.480011,338.146667 202.450348,337.813629 201.052246,337.584198
	C202.729568,320.603790 204.360367,304.047913 206.006302,287.493561
	C206.201187,285.533478 206.525879,283.585968 206.708572,281.625031
	C207.103149,277.389709 207.364990,273.140717 207.829468,268.913574
	C208.323074,264.421082 208.905243,259.933929 209.632614,255.474411
	C209.831802,254.253250 210.690826,253.139725 211.247040,251.976791
	C209.750641,252.181473 208.255356,252.394745 206.757462,252.587769
	C205.781448,252.713547 204.801636,252.809860 203.823532,252.919373
z"/>
    <path fill="#92CA5E" opacity="1.000000" stroke="none"
          d="
M278.745361,220.039581
	C279.126190,220.439453 279.507050,220.839310 279.985291,221.842987
	C280.984558,223.322449 281.886444,224.198105 282.788330,225.073761
	C283.155487,225.522186 283.522614,225.970612 283.658173,226.930359
	C283.954193,229.294113 284.481781,231.146545 285.001251,233.381195
	C283.801361,236.604507 282.545227,239.420639 281.430573,242.291672
	C278.697784,249.330582 275.925751,256.357574 273.393890,263.469269
	C272.520569,265.922272 272.461029,268.652618 271.768799,271.184937
	C269.918182,277.954865 267.811066,284.655884 266.028870,291.442902
	C264.737610,296.360291 263.802673,301.371216 262.583893,306.908081
	C265.482178,309.133362 262.581818,311.466736 260.833954,314.080200
	C259.373138,316.264404 258.268463,318.686768 257.000549,321.249847
	C256.994965,321.496033 256.983856,321.988464 256.622253,321.996399
	C253.984039,322.477722 251.137039,322.521790 253.107971,326.192535
	C251.472504,327.198547 249.837036,328.204529 247.488617,329.137939
	C246.519394,329.047241 246.263107,329.029114 246.039795,328.659668
	C247.662338,325.837402 250.953140,323.022369 250.535461,320.957397
	C249.040009,313.563568 251.346695,307.027954 252.897919,300.107666
	C256.026550,286.150208 258.078033,271.950745 261.226471,257.998383
	C264.405487,243.910660 268.374573,230.001236 272.302307,216.155518
	C274.653137,217.544754 276.699249,218.792160 278.745361,220.039581
z"/>
    <path fill="#6CBF58" opacity="1.000000" stroke="none"
          d="
M187.339951,140.248901
	C186.652542,140.002594 185.965118,139.756271 185.082947,138.908295
	C183.878448,137.910248 182.868698,137.513840 181.858948,137.117432
	C181.858948,137.117432 181.933899,137.059708 181.823425,136.839233
	C181.381042,136.443344 181.049164,136.267899 180.717270,136.092468
	C180.259857,135.360031 179.802460,134.627594 179.728882,133.365189
	C181.616074,128.554626 183.139603,124.280983 184.614761,119.990700
	C185.424118,117.636818 186.151825,115.254868 186.916351,112.885574
	C186.916351,112.885574 186.952988,112.986526 187.279312,112.949997
	C190.417374,110.321419 193.229111,107.729370 196.040848,105.137321
	C196.679306,106.715057 196.256592,107.654015 196.348190,108.539795
	C196.454422,109.567162 196.752609,110.913712 197.465652,111.419754
	C197.938583,111.755394 199.317169,110.925613 200.235062,110.498672
	C201.772781,109.783424 203.266373,108.973289 204.778519,108.203094
	C205.238861,110.110603 205.542084,112.073929 206.195175,113.912994
	C207.260468,116.912750 207.834885,120.544205 209.904556,122.632393
	C213.920166,126.683975 220.203613,128.241501 222.820602,134.060303
	C223.059937,134.592438 224.250137,134.696930 224.990784,135.405075
	C224.329483,138.677124 224.487289,142.183136 222.843414,144.269699
	C219.975891,147.909363 219.306198,150.791275 222.912567,153.885391
	C221.077286,157.292145 219.339996,157.510239 216.461884,155.247711
	C215.105133,154.181137 213.518372,150.251648 210.655106,153.773666
	C210.655106,153.773666 210.270737,153.696365 210.022308,153.159943
	C208.654663,152.153229 207.535446,151.682953 206.416229,151.212677
	C205.098221,150.598450 203.780212,149.984207 202.158844,148.792191
	C201.031708,147.876724 200.207932,147.539047 199.384155,147.201385
	C198.690811,146.951889 197.997482,146.702377 197.126617,145.924744
	C196.310654,145.235352 195.672180,145.074081 195.033722,144.912811
	C194.111511,144.491989 193.189316,144.071167 192.084366,142.982300
	C190.381073,141.625809 188.860504,140.937363 187.339951,140.248901
z"/>
    <path fill="#80C351" opacity="1.000000" stroke="none"
          d="
M216.992462,336.974609
	C217.637894,330.787109 218.555786,324.612823 218.857010,318.408630
	C219.202362,311.295532 218.717697,304.139557 219.127274,297.032959
	C219.447906,291.469513 220.405685,285.921143 221.397476,280.423279
	C222.778961,272.765289 225.977798,265.511505 223.555954,257.219238
	C222.602066,253.953201 225.010040,249.705292 226.304230,244.097092
	C220.544800,245.920288 215.882965,247.396027 210.802826,248.830078
	C217.166916,244.792877 223.949295,240.797394 231.418488,236.772186
	C232.372604,236.386765 232.639893,236.031036 232.907196,235.675308
	C233.715042,235.094452 234.522903,234.513596 235.816574,234.163635
	C239.798187,234.530869 242.591736,237.690872 241.665817,240.457153
	C240.547241,243.799042 239.115967,247.074265 238.379471,250.498657
	C236.456085,259.441284 234.538345,268.404327 233.174133,277.443085
	C231.503616,288.511353 230.381531,299.662933 229.079041,310.785156
	C228.967346,311.738770 229.419891,312.750031 229.364929,313.720642
	C229.276291,315.286255 228.938187,316.835938 228.788422,318.400299
	C228.609192,320.272369 228.558228,322.156982 228.369415,324.027832
	C228.279449,324.919098 227.924057,325.782501 227.820953,326.673798
	C227.614731,328.456390 227.499435,330.249481 227.346603,332.038239
	C227.524719,332.019623 227.702850,332.001038 227.880981,331.982452
	C227.249146,333.313354 226.617310,334.644287 225.633392,335.983582
	C224.183487,336.516144 223.085678,337.040283 221.987869,337.564453
	C221.239548,337.724792 220.491241,337.885162 219.193176,337.754089
	C218.093109,337.299957 217.542786,337.137268 216.992462,336.974609
z"/>
    <path fill="#76C25D" opacity="1.000000" stroke="none"
          d="
M210.806396,154.043915
	C213.518372,150.251648 215.105133,154.181137 216.461884,155.247711
	C219.339996,157.510239 221.077286,157.292145 222.912567,153.885391
	C219.306198,150.791275 219.975891,147.909363 222.843414,144.269699
	C224.487289,142.183136 224.329483,138.677124 225.256149,135.194092
	C226.114716,133.450974 226.699936,132.323898 227.285156,131.196838
	C227.569061,131.676666 227.852982,132.156494 228.136887,132.636322
	C230.066376,131.939194 233.340988,131.629288 233.673981,130.472565
	C234.686417,126.955605 236.897430,125.667976 240.438690,124.998817
	C244.585526,124.666824 248.292465,124.334175 251.999451,124.428162
	C251.791016,126.634415 251.950882,128.561768 251.307175,130.166855
	C249.086639,135.703827 249.340790,140.689072 253.613174,145.191467
	C254.234665,145.846420 255.025757,147.371307 254.770874,147.671097
	C251.395325,151.641495 254.797318,155.949692 253.648071,160.034561
	C251.848877,160.912598 250.404068,161.754852 250.092529,161.936462
	C250.584824,165.438904 251.985413,168.677216 250.966324,169.901657
	C249.765167,171.344879 246.474716,171.323441 244.078415,171.373276
	C243.002319,171.395645 241.978012,169.820679 240.779465,169.398285
	C239.895462,169.086746 238.767151,169.468445 237.747696,169.541275
	C235.938202,168.601456 234.128708,167.661621 232.122223,166.135162
	C231.270401,165.398346 230.615601,165.248184 229.960785,165.098022
	C223.626404,161.503403 217.292038,157.908783 210.806396,154.043915
z"/>
    <path fill="#6EBF5F" opacity="1.000000" stroke="none"
          d="
M239.998779,124.998169
	C236.897430,125.667976 234.686417,126.955605 233.673981,130.472565
	C233.340988,131.629288 230.066376,131.939194 228.136887,132.636322
	C227.852982,132.156494 227.569061,131.676666 227.285156,131.196838
	C226.699936,132.323898 226.114716,133.450974 225.264130,134.789017
	C224.250137,134.696930 223.059937,134.592438 222.820602,134.060303
	C220.203613,128.241501 213.920166,126.683975 209.904556,122.632393
	C207.834885,120.544205 207.260468,116.912750 206.195175,113.912994
	C205.542084,112.073929 205.238861,110.110603 204.778519,108.203094
	C203.266373,108.973289 201.772781,109.783424 200.235062,110.498672
	C199.317169,110.925613 197.938583,111.755394 197.465652,111.419754
	C196.752609,110.913712 196.454422,109.567162 196.348190,108.539795
	C196.256592,107.654015 196.679306,106.715057 196.040848,105.137321
	C193.229111,107.729370 190.417374,110.321419 187.237946,112.915771
	C191.236053,108.284004 195.601868,103.649940 200.643753,98.953201
	C201.879990,98.268608 202.440140,97.646675 203.000290,97.024734
	C203.000290,97.024734 203.188950,96.799927 203.776932,96.862480
	C206.882263,97.093407 209.098419,96.875130 208.820099,93.454575
	C209.190781,93.198761 209.561447,92.942940 210.627350,92.799286
	C214.972183,91.750793 218.601837,90.521187 222.279251,89.456497
	C224.335709,88.861099 226.471375,88.539261 229.787567,87.836372
	C227.498398,90.735107 226.347305,92.192719 225.196213,93.650330
	C227.076172,94.588188 228.956146,95.526039 231.189438,96.640152
	C230.038971,98.036758 229.248260,98.996658 229.410110,98.800179
	C230.951767,105.012604 232.250778,110.247208 233.840225,116.652222
	C236.141174,117.923576 240.515991,119.492432 239.998779,124.998169
z"/>
    <path fill="#73C04A" opacity="1.000000" stroke="none"
          d="
M203.496780,252.852539
	C204.801636,252.809860 205.781448,252.713547 206.757462,252.587769
	C208.255356,252.394745 209.750641,252.181473 211.247040,251.976791
	C210.690826,253.139725 209.831802,254.253250 209.632614,255.474411
	C208.905243,259.933929 208.323074,264.421082 207.829468,268.913574
	C207.364990,273.140717 207.103149,277.389709 206.708572,281.625031
	C206.525879,283.585968 206.201187,285.533478 206.006302,287.493561
	C204.360367,304.047913 202.729568,320.603790 201.052246,337.584198
	C202.450348,337.813629 204.480011,338.146667 206.770920,338.770294
	C202.244843,339.211578 197.457520,339.362335 192.337280,338.882904
	C191.819672,332.554382 191.673203,326.854431 191.439026,321.158081
	C191.226624,315.991669 190.368851,310.784790 190.781204,305.675323
	C191.405121,297.944580 193.155991,290.309235 193.904739,282.582642
	C194.407242,277.397156 193.801926,272.111572 194.120956,266.896973
	C194.227432,265.156799 195.232666,262.660248 196.576965,261.970032
	C199.724319,260.354095 200.328064,258.068054 199.998352,255.035522
	C201.055573,254.285583 202.112808,253.535645 203.496780,252.852539
z"/>
    <path fill="#70BE4D" opacity="1.000000" stroke="none"
          d="
M199.636780,255.016876
	C200.328064,258.068054 199.724319,260.354095 196.576965,261.970032
	C195.232666,262.660248 194.227432,265.156799 194.120956,266.896973
	C193.801926,272.111572 194.407242,277.397156 193.904739,282.582642
	C193.155991,290.309235 191.405121,297.944580 190.781204,305.675323
	C190.368851,310.784790 191.226624,315.991669 191.439026,321.158081
	C191.673203,326.854431 191.819672,332.554382 191.985519,338.674866
	C187.848541,338.871399 183.730377,338.645782 179.063690,338.209778
	C178.515167,337.999420 178.095291,337.952759 178.095291,337.952759
	C178.095291,337.952759 178.047470,338.001678 178.034943,337.720703
	C178.022415,337.439728 177.994858,336.944702 177.994858,336.944702
	C179.524338,332.326843 175.060089,331.136230 172.402481,328.391510
	C174.688156,327.334503 176.526077,326.484589 178.363998,325.634674
	C177.824265,324.969604 177.284546,324.304565 176.744812,323.639526
	C175.257767,323.214935 173.770706,322.790344 172.895569,322.540466
	C175.010422,314.558899 177.730743,306.967438 178.887512,299.144775
	C179.960220,291.890442 185.531403,285.942352 184.254425,278.016510
	C183.989563,276.372620 186.675934,274.253235 188.144806,272.148621
	C184.437653,270.675568 181.059891,269.333374 177.291229,267.958252
	C182.516693,264.597443 188.121704,261.250153 193.756027,257.953003
	C195.555786,256.899780 197.433273,255.979401 199.636780,255.016876
z"/>
    <path fill="#85C662" opacity="1.000000" stroke="none"
          d="
M237.912750,169.811676
	C238.767151,169.468445 239.895462,169.086746 240.779465,169.398285
	C241.978012,169.820679 243.002319,171.395645 244.078415,171.373276
	C246.474716,171.323441 249.765167,171.344879 250.966324,169.901657
	C251.985413,168.677216 250.584824,165.438904 250.092529,161.936462
	C250.404068,161.754852 251.848877,160.912598 254.062057,160.035355
	C256.796478,159.488342 259.365875,159.591354 260.623810,158.357437
	C265.961700,153.121552 270.910370,147.488907 276.305450,142.149582
	C278.022003,143.370529 279.434296,144.443115 280.776489,145.462433
	C276.540161,156.252655 279.142853,159.250687 288.527344,160.920990
	C289.329620,161.063782 290.172394,160.979050 290.960876,161.351395
	C289.075562,163.738098 287.167145,165.723755 285.388397,167.819458
	C282.038025,171.766876 276.604279,174.681274 278.798615,181.440475
	C279.073975,182.288605 278.039276,184.413635 277.282532,184.598251
	C273.950867,185.411011 273.904633,187.793884 273.906403,190.358597
	C261.963531,183.599762 250.020660,176.840927 237.912750,169.811676
z"/>
    <path fill="#7DC470" opacity="1.000000" stroke="none"
          d="
M238.990768,84.270683
	C263.065521,82.774956 284.055847,90.115891 301.781128,106.788147
	C299.293671,109.509377 296.899872,111.603127 294.725616,113.904305
	C288.438782,120.558029 282.240326,127.295212 275.735016,133.780624
	C273.641876,130.040756 271.820923,126.519920 269.960938,122.632797
	C269.935577,120.537560 269.999817,118.807022 269.946411,117.080124
	C269.905212,115.748970 269.783112,114.412018 269.578857,113.095985
	C269.190308,110.592445 268.135132,108.033577 268.418610,105.622543
	C268.822205,102.190079 270.182922,98.870148 271.098236,95.631332
	C267.612183,94.909164 263.878448,94.135689 259.954071,93.322716
	C260.860260,90.860909 261.400085,89.394424 262.172516,87.295929
	C258.116974,86.826622 254.558487,86.414841 250.542068,86.001793
	C246.386353,85.423920 242.688553,84.847298 238.990768,84.270683
z"/>
    <path fill="#85C554" opacity="1.000000" stroke="none"
          d="
M225.985489,335.975189
	C226.617310,334.644287 227.249146,333.313354 227.880981,331.982452
	C227.702850,332.001038 227.524719,332.019623 227.346603,332.038239
	C227.499435,330.249481 227.614731,328.456390 227.820953,326.673798
	C227.924057,325.782501 228.279449,324.919098 228.369415,324.027832
	C228.558228,322.156982 228.609192,320.272369 228.788422,318.400299
	C228.938187,316.835938 229.276291,315.286255 229.364929,313.720642
	C229.419891,312.750031 228.967346,311.738770 229.079041,310.785156
	C230.381531,299.662933 231.503616,288.511353 233.174133,277.443085
	C234.538345,268.404327 236.456085,259.441284 238.379471,250.498657
	C239.115967,247.074265 240.547241,243.799042 241.665817,240.457153
	C242.591736,237.690872 239.798187,234.530869 236.119827,234.128418
	C240.043900,231.560257 244.150543,229.258224 248.629517,227.182648
	C250.091187,231.211273 255.961472,234.980774 249.085495,238.864700
	C248.928421,238.953430 249.029434,239.496979 249.008026,239.828262
	C248.163467,252.886154 247.033813,265.764587 242.249466,278.282074
	C239.979980,284.219849 240.860611,291.318787 239.998276,297.849976
	C239.223663,303.716736 236.767014,309.643768 237.301056,315.333130
	C238.053513,323.349731 233.571609,328.998871 230.995499,335.561493
	C229.578690,335.991882 228.161880,336.422272 226.373474,336.620239
	C226.001877,336.387848 225.985489,335.975189 225.985489,335.975189
z"/>
    <path fill="#8BC75A" opacity="1.000000" stroke="none"
          d="
M231.368927,335.628113
	C233.571609,328.998871 238.053513,323.349731 237.301056,315.333130
	C236.767014,309.643768 239.223663,303.716736 239.998276,297.849976
	C240.860611,291.318787 239.979980,284.219849 242.249466,278.282074
	C247.033813,265.764587 248.163467,252.886154 249.008026,239.828262
	C249.029434,239.496979 248.928421,238.953430 249.085495,238.864700
	C255.961472,234.980774 250.091187,231.211273 248.953064,227.022018
	C253.996872,223.730911 259.089508,220.826904 264.754395,218.185776
	C267.809174,221.131500 268.018219,223.394638 264.694305,225.805298
	C263.361328,226.772049 262.546417,228.816986 262.089233,230.529617
	C261.588318,232.405991 262.530884,235.057571 261.527191,236.342255
	C257.207794,241.871033 256.511810,248.290955 255.408203,254.864990
	C253.450867,266.524597 248.860855,277.679077 248.891907,289.762695
	C248.901566,293.516754 248.808121,297.649811 247.316544,300.957611
	C242.945999,310.649994 245.156082,321.105713 242.998947,330.995209
	C239.246750,332.561737 235.494553,334.128265 231.368927,335.628113
z"/>
    <path fill="#A0CF66" opacity="1.000000" stroke="none"
          d="
M338.382050,175.867172
	C338.955170,179.274429 339.528320,182.681671 340.031860,186.934677
	C339.960510,189.186401 339.958740,190.592377 339.577698,192.005005
	C330.169830,193.310013 327.352142,201.915710 322.429352,207.471603
	C317.553131,212.974930 315.469604,220.952667 312.208038,227.747498
	C310.140594,227.527786 308.366180,227.339203 306.591736,227.150635
	C306.347382,226.716888 306.103027,226.283157 305.841919,225.324249
	C305.585785,224.542358 305.346405,224.285645 305.107025,224.028946
	C304.990662,223.704956 304.874329,223.380966 304.822693,222.425079
	C304.265503,221.193756 303.643585,220.594330 303.021637,219.994888
	C302.674164,219.547943 302.326691,219.101013 302.214722,218.139313
	C301.350983,209.779587 302.494751,202.742172 309.519501,197.778061
	C309.888245,197.517487 309.943573,196.846497 310.286285,196.511185
	C318.675201,188.303635 324.828552,177.043854 338.382050,175.867172
z"/>
    <path fill="#90C964" opacity="1.000000" stroke="none"
          d="
M274.058014,190.641876
	C273.904633,187.793884 273.950867,185.411011 277.282532,184.598251
	C278.039276,184.413635 279.073975,182.288605 278.798615,181.440475
	C276.604279,174.681274 282.038025,171.766876 285.388397,167.819458
	C287.167145,165.723755 289.075562,163.738098 291.280762,161.327087
	C292.424896,160.633865 293.213654,160.316330 294.424652,159.998840
	C299.045563,159.327545 303.653503,160.029205 306.606476,155.586334
	C307.298767,154.544724 309.495453,154.502991 310.992493,154.398743
	C310.006317,158.113235 307.826263,161.604492 308.277374,164.714005
	C309.556854,173.532532 301.482269,177.566132 299.113403,184.523071
	C297.243866,190.013397 292.615479,194.606262 295.765259,201.259491
	C292.963013,201.369110 290.399231,201.219208 287.835419,201.069305
	C283.293488,197.687943 278.751556,194.306549 274.058014,190.641876
z"/>
    <path fill="#71C165" opacity="1.000000" stroke="none"
          d="
M238.586426,84.200722
	C242.688553,84.847298 246.386353,85.423920 250.542068,86.419670
	C250.816681,89.605965 250.830902,92.143311 254.325027,93.144005
	C254.908325,93.311066 254.954987,95.351906 255.249634,96.526901
	C249.720001,97.234650 251.216431,101.499123 250.964798,104.917412
	C250.795578,107.216034 249.574631,109.950119 250.432236,111.702370
	C252.106888,115.124062 253.340378,118.265160 252.000336,122.332306
	C251.999847,123.111267 251.999619,123.556396 251.999390,124.001526
	C248.292465,124.334175 244.585526,124.666824 240.438690,124.998817
	C240.515991,119.492432 236.141174,117.923576 233.840225,116.652222
	C232.250778,110.247208 230.951767,105.012604 229.410110,98.800179
	C229.248260,98.996658 230.038971,98.036758 231.189438,96.640152
	C228.956146,95.526039 227.076172,94.588188 225.196213,93.650330
	C226.347305,92.192719 227.498398,90.735107 229.787567,87.836372
	C226.471375,88.539261 224.335709,88.861099 222.279251,89.456497
	C218.601837,90.521187 214.972183,91.750793 210.855453,92.855202
	C218.744370,86.996368 228.406082,85.380348 238.586426,84.200722
z"/>
    <path fill="#9BCC69" opacity="1.000000" stroke="none"
          d="
M287.956696,201.387207
	C290.399231,201.219208 292.963013,201.369110 296.112732,201.222321
	C301.573303,198.962631 295.918976,196.151672 297.710785,194.226624
	C301.699585,190.190903 305.331177,185.829514 309.011017,181.509247
	C310.162872,180.156921 311.218719,178.495361 312.705841,177.694901
	C319.700714,173.929871 321.397156,166.167816 325.841248,160.500443
	C328.679688,156.880707 331.685822,152.651642 329.631958,147.316513
	C329.612793,147.266739 329.867859,147.111389 329.994934,147.005310
	C335.050873,155.667328 337.295471,165.157974 338.318085,175.447418
	C324.828552,177.043854 318.675201,188.303635 310.286285,196.511185
	C309.943573,196.846497 309.888245,197.517487 309.519501,197.778061
	C302.494751,202.742172 301.350983,209.779587 302.158447,217.850769
	C297.270447,212.619690 292.674194,207.162399 287.956696,201.387207
z"/>
    <path fill="#9BCC69" opacity="1.000000" stroke="none"
          d="
M257.006104,321.003662
	C258.268463,318.686768 259.373138,316.264404 260.833954,314.080200
	C262.581818,311.466736 265.482178,309.133362 262.583893,306.908081
	C263.802673,301.371216 264.737610,296.360291 266.028870,291.442902
	C267.811066,284.655884 269.918182,277.954865 271.768799,271.184937
	C272.461029,268.652618 272.520569,265.922272 273.393890,263.469269
	C275.925751,256.357574 278.697784,249.330582 281.430573,242.291672
	C282.545227,239.420639 283.801361,236.604507 285.316406,233.546509
	C287.080078,238.486755 288.568848,243.631561 289.893799,248.818192
	C290.043579,249.404617 289.281982,250.232819 288.922760,250.938614
	C287.971649,252.807388 286.798828,254.594193 286.090210,256.549835
	C283.755005,262.994720 281.568970,269.494019 279.358490,275.983643
	C277.232422,282.225342 275.117767,288.471375 273.083801,294.743256
	C272.846954,295.473572 272.885315,296.535095 273.254303,297.181488
	C276.071228,302.116394 272.026642,304.901001 269.860840,308.235535
	C267.297791,312.181702 264.614380,316.049744 261.983124,319.951630
	C261.595734,320.313416 261.208313,320.675232 260.137329,321.037903
	C258.637878,321.027100 257.821991,321.015381 257.006104,321.003662
z"/>
    <path fill="#8EC85A" opacity="1.000000" stroke="none"
          d="
M243.335175,331.052002
	C245.156082,321.105713 242.945999,310.649994 247.316544,300.957611
	C248.808121,297.649811 248.901566,293.516754 248.891907,289.762695
	C248.860855,277.679077 253.450867,266.524597 255.408203,254.864990
	C256.511810,248.290955 257.207794,241.871033 261.527191,236.342255
	C262.530884,235.057571 261.588318,232.405991 262.089233,230.529617
	C262.546417,228.816986 263.361328,226.772049 264.694305,225.805298
	C268.018219,223.394638 267.809174,221.131500 265.116089,218.127777
	C265.618469,217.225555 266.331421,216.644226 267.733795,215.988586
	C269.614685,215.947403 270.806122,215.980545 271.997559,216.013687
	C268.374573,230.001236 264.405487,243.910660 261.226471,257.998383
	C258.078033,271.950745 256.026550,286.150208 252.897919,300.107666
	C251.346695,307.027954 249.040009,313.563568 250.535461,320.957397
	C250.953140,323.022369 247.662338,325.837402 246.048752,328.948486
	C246.036774,329.780884 246.048798,329.973206 246.060822,330.165558
	C245.264343,330.479980 244.467865,330.794403 243.335175,331.052002
z"/>
    <path fill="#85C771" opacity="1.000000" stroke="none"
          d="
M276.007202,133.999649
	C282.240326,127.295212 288.438782,120.558029 294.725616,113.904305
	C296.899872,111.603127 299.293671,109.509377 301.883118,107.109650
	C307.451477,113.024399 312.723907,119.150375 317.673462,125.635574
	C316.299408,126.618309 314.379364,127.185921 314.335083,127.874214
	C313.991791,133.209976 310.259003,133.904266 306.166443,134.479553
	C304.081329,134.772659 302.054443,135.479950 299.561249,135.999939
	C291.749146,135.999512 284.377014,135.999146 276.897278,135.740189
	C276.528839,134.987610 276.268005,134.493637 276.007202,133.999649
z"/>
    <path fill="#A2CE6E" opacity="1.000000" stroke="none"
          d="
M262.318726,319.907043
	C264.614380,316.049744 267.297791,312.181702 269.860840,308.235535
	C272.026642,304.901001 276.071228,302.116394 273.254303,297.181488
	C272.885315,296.535095 272.846954,295.473572 273.083801,294.743256
	C275.117767,288.471375 277.232422,282.225342 279.358490,275.983643
	C281.568970,269.494019 283.755005,262.994720 286.090210,256.549835
	C286.798828,254.594193 287.971649,252.807388 288.922760,250.938614
	C289.281982,250.232819 290.043579,249.404617 289.893799,248.818192
	C288.568848,243.631561 287.080078,238.486755 285.324524,233.164307
	C284.481781,231.146545 283.954193,229.294113 283.682373,227.233688
	C290.366364,234.704529 292.158417,244.128647 292.739105,253.556183
	C294.418823,280.828369 283.666412,302.742554 262.318726,319.907043
z"/>
    <path fill="#ADD36B" opacity="1.000000" stroke="none"
          d="
M340.963196,214.987579
	C340.932678,216.055923 340.902191,217.124268 340.442566,218.689667
	C339.641510,222.111740 339.269592,225.036758 338.897705,227.961792
	C338.877197,228.417007 338.856659,228.872208 338.412231,229.734360
	C335.396759,234.737198 330.243561,237.703262 329.565063,243.574005
	C329.465912,244.432236 328.255554,245.419113 327.327667,245.881592
	C322.335388,248.369751 317.867249,251.102890 318.959717,257.852509
	C319.094879,258.687561 318.690094,259.610016 318.535492,260.492004
	C318.005463,260.579987 317.475403,260.667969 316.945343,260.755981
	C315.949768,257.435760 315.082916,254.068665 313.898682,250.817154
	C313.386902,249.411926 312.219513,248.245468 311.349976,246.970535
	C311.259308,246.522781 311.168640,246.075043 311.366241,245.025177
	C311.432281,241.952591 311.210052,239.482086 311.334900,236.956238
	C313.610809,234.822845 315.519928,232.726089 317.472717,230.670853
	C321.133820,226.817688 324.764954,222.933640 328.511597,219.164902
	C332.275726,215.378525 336.165375,211.716904 340.002075,208.417816
	C340.323853,210.885864 340.643524,212.936722 340.963196,214.987579
z"/>
    <path fill="#93CB68" opacity="1.000000" stroke="none"
          d="
M330.004333,146.705841
	C329.867859,147.111389 329.612793,147.266739 329.631958,147.316513
	C331.685822,152.651642 328.679688,156.880707 325.841248,160.500443
	C321.397156,166.167816 319.700714,173.929871 312.705841,177.694901
	C311.218719,178.495361 310.162872,180.156921 309.011017,181.509247
	C305.331177,185.829514 301.699585,190.190903 297.710785,194.226624
	C295.918976,196.151672 301.573303,198.962631 296.351166,200.962830
	C292.615479,194.606262 297.243866,190.013397 299.113403,184.523071
	C301.482269,177.566132 309.556854,173.532532 308.277374,164.714005
	C307.826263,161.604492 310.006317,158.113235 311.318268,154.254303
	C312.090118,153.477859 312.510986,153.198837 312.970062,153.015701
	C318.744934,150.712036 325.246582,149.115219 324.382812,140.623016
	C324.333008,140.133438 325.478577,139.522263 326.067841,138.967667
	C326.722473,140.079651 327.377136,141.191620 327.814148,142.803207
	C328.089020,143.858032 328.581543,144.413239 329.074066,144.968430
	C329.387299,145.447739 329.700500,145.927063 330.004333,146.705841
z"/>
    <path fill="#8DC96D" opacity="1.000000" stroke="none"
          d="
M326.027893,138.611938
	C325.478577,139.522263 324.333008,140.133438 324.382812,140.623016
	C325.246582,149.115219 318.744934,150.712036 312.970062,153.015701
	C312.510986,153.198837 312.090118,153.477859 311.325745,153.856781
	C309.495453,154.502991 307.298767,154.544724 306.606476,155.586334
	C303.653503,160.029205 299.045563,159.327545 294.424438,159.610474
	C294.240082,158.114243 294.158325,156.773972 294.767456,155.935791
	C299.119873,149.946777 302.177307,143.678711 300.001221,136.000000
	C302.054443,135.479950 304.081329,134.772659 306.166443,134.479553
	C310.259003,133.904266 313.991791,133.209976 314.335083,127.874214
	C314.379364,127.185921 316.299408,126.618309 317.749146,125.977081
	C320.761108,130.058319 323.374512,134.157272 326.027893,138.611938
z"/>
    <path fill="#B7D67C" opacity="1.000000" stroke="none"
          d="
M311.248291,247.410721
	C312.219513,248.245468 313.386902,249.411926 313.898682,250.817154
	C315.082916,254.068665 315.949768,257.435760 316.945343,260.755981
	C317.475403,260.667969 318.005463,260.579987 318.535492,260.492004
	C318.690094,259.610016 319.094879,258.687561 318.959717,257.852509
	C317.867249,251.102890 322.335388,248.369751 327.327667,245.881592
	C328.255554,245.419113 329.465912,244.432236 329.565063,243.574005
	C330.243561,237.703262 335.396759,234.737198 338.288330,230.054962
	C336.682220,242.954803 331.586517,254.821487 325.063202,266.002441
	C320.445251,273.917664 314.836548,281.254822 308.948669,288.475281
	C311.326904,274.811035 312.645203,261.418671 311.248291,247.410721
z"/>
    <path fill="#73BF68" opacity="1.000000" stroke="none"
          d="
M172.374283,98.999657
	C171.682205,95.474144 173.174637,92.925308 176.258286,90.785492
	C179.899567,88.258736 183.212677,85.246185 186.563263,82.324089
	C187.249573,81.725540 187.722321,80.633629 187.864639,79.703514
	C188.432526,75.992088 189.497940,72.841560 193.053482,70.637291
	C194.264465,69.886543 194.259583,67.174599 194.810257,65.358772
	C192.848587,64.972862 190.853256,64.131271 188.930603,64.273354
	C173.948318,65.380501 159.652054,69.316559 145.837250,75.128601
	C145.117294,75.431488 144.271896,75.436142 143.260391,75.342590
	C154.799255,68.390915 167.779709,65.511673 180.942505,63.469723
	C194.704727,61.334785 208.494583,61.730080 222.190552,64.377342
	C223.125900,64.558128 224.020935,64.947571 225.960587,65.568253
	C204.561371,72.042000 186.407944,81.988113 172.374283,98.999657
z"/>
    <path fill="#A8D167" opacity="1.000000" stroke="none"
          d="
M340.000000,208.000610
	C336.165375,211.716904 332.275726,215.378525 328.511597,219.164902
	C324.764954,222.933640 321.133820,226.817688 317.472717,230.670853
	C315.519928,232.726089 313.610809,234.822845 311.062683,236.947174
	C310.081818,236.974548 309.720276,236.955612 309.358734,236.936676
	C309.240204,236.512253 309.121704,236.087830 309.171844,235.237152
	C309.185028,234.544083 309.029572,234.277252 308.874115,234.010406
	C308.154602,231.967285 307.435089,229.924179 306.653656,227.515839
	C308.366180,227.339203 310.140594,227.527786 312.208038,227.747498
	C315.469604,220.952667 317.553131,212.974930 322.429352,207.471603
	C327.352142,201.915710 330.169830,193.310013 339.794922,192.274597
	C340.260956,197.691879 340.130493,202.846252 340.000000,208.000610
z"/>
    <path fill="#73BF68" opacity="1.000000" stroke="none"
          d="
M157.043091,123.022362
	C158.036194,122.086723 159.376282,121.327850 159.959381,120.183319
	C161.959351,116.257698 163.693970,112.196884 165.914673,108.220383
	C157.006912,128.196991 157.720947,149.479507 157.931046,170.697815
	C157.958939,173.513931 157.871475,176.331207 157.689713,179.600403
	C157.032791,178.639221 156.143066,177.241135 156.084457,175.809052
	C155.895477,171.190826 156.012558,166.560074 156.011047,160.997406
	C156.354645,147.714554 156.698868,135.368454 157.043091,123.022362
z"/>
    <path fill="#73BF68" opacity="1.000000" stroke="none"
          d="
M157.725784,231.593506
	C157.066330,231.135910 156.097794,230.226959 156.092331,229.312241
	C156.003937,214.536423 156.028839,199.759857 156.078064,184.983612
	C156.079987,184.404694 156.579315,183.827438 157.195587,183.098907
	C157.651123,199.012100 157.757950,215.075775 157.725784,231.593506
z"/>
    <path fill="#70BE4D" opacity="1.000000" stroke="none"
          d="
M143.228577,327.243164
	C144.981354,327.267334 147.011230,327.354034 148.912338,327.894073
	C157.260132,330.265259 165.573715,332.757416 173.885269,335.253754
	C174.271973,335.369904 174.519943,335.947906 174.884583,336.703461
	C164.439896,333.902191 153.943161,330.708282 143.228577,327.243164
z"/>
    <path fill="#73BF68" opacity="1.000000" stroke="none"
          d="
M70.915810,160.336395
	C70.802910,163.115295 70.447693,166.176132 70.055679,169.618484
	C69.900673,176.116013 69.782455,182.232010 69.390961,188.655457
	C67.290871,179.385956 67.758362,169.934967 70.915810,160.336395
z"/>
    <path fill="#B7D67C" opacity="1.000000" stroke="none"
          d="
M340.002075,208.417816
	C340.130493,202.846252 340.260956,197.691879 340.174194,192.267944
	C339.958740,190.592377 339.960510,189.186401 339.998627,187.358673
	C340.647095,187.973282 341.785858,189.008606 341.787811,190.046112
	C341.803192,198.143158 341.600098,206.240585 341.213806,214.662750
	C340.643524,212.936722 340.323853,210.885864 340.002075,208.417816
z"/>
    <path fill="#70BE4D" opacity="1.000000" stroke="none"
          d="
M81.446365,268.305542
	C82.469269,268.247192 84.114517,268.171722 84.526375,268.847717
	C88.005249,274.557831 91.272415,280.397522 94.557899,286.223846
	C94.865273,286.768921 94.860886,287.489838 95.004784,288.489014
	C90.504539,282.111572 86.000755,275.374176 81.446365,268.305542
z"/>
    <path fill="#73BF68" opacity="1.000000" stroke="none"
          d="
M90.510521,118.785095
	C88.694763,123.026871 86.726952,127.518967 84.431305,131.836761
	C82.760880,134.978607 80.657440,137.890244 78.399651,140.956726
	C82.107498,133.659531 86.162750,126.310135 90.510521,118.785095
z"/>
    <path fill="#73BF68" opacity="1.000000" stroke="none"
          d="
M105.261780,249.239441
	C108.388641,250.291809 111.619476,251.780045 114.959991,252.956985
	C119.856735,254.682190 124.831985,256.184540 129.910248,258.087433
	C120.980446,257.820312 113.017448,254.179306 105.261780,249.239441
z"/>
    <path fill="#70BE4D" opacity="1.000000" stroke="none"
          d="
M176.564911,267.926880
	C175.729782,269.031281 174.656357,270.367737 173.296692,271.275421
	C170.656693,273.037842 167.967773,274.820679 165.070480,276.060913
	C163.789703,276.609192 161.951599,275.855560 160.195770,275.382385
	C165.415756,272.702911 170.806488,270.334045 176.564911,267.926880
z"/>
    <path fill="#6EBF5F" opacity="1.000000" stroke="none"
          d="
M186.603851,113.033798
	C186.151825,115.254868 185.424118,117.636818 184.614761,119.990700
	C183.139603,124.280983 181.616074,128.554626 179.730774,133.031403
	C178.716568,125.525269 182.741058,119.435753 186.603851,113.033798
z"/>
    <path fill="#85C771" opacity="1.000000" stroke="none"
          d="
M82.042145,256.632904
	C80.637764,256.402588 79.207306,255.831161 77.587044,255.183914
	C77.587044,256.470612 77.587044,257.513763 77.371582,258.758850
	C75.735977,255.945160 74.315826,252.929520 72.895676,249.913895
	C73.320389,249.597687 73.745110,249.281494 74.169823,248.965286
	C76.785233,251.407471 79.400642,253.849640 82.042145,256.632904
z"/>
    <path fill="#70BE4D" opacity="1.000000" stroke="none"
          d="
M127.629524,318.501404
	C130.381119,316.877441 132.650375,317.518982 134.701096,320.097565
	C136.098724,321.854919 138.043427,323.177185 139.816956,325.046021
	C135.863174,323.202087 131.835907,321.006165 127.629524,318.501404
z"/>
    <path fill="#73BF68" opacity="1.000000" stroke="none"
          d="
M109.674423,97.075356
	C109.151398,101.751793 106.004341,104.383736 101.411530,106.026627
	C103.813637,103.061707 106.577675,100.094337 109.674423,97.075356
z"/>
    <path fill="#70BE4D" opacity="1.000000" stroke="none"
          d="
M144.543945,278.193970
	C140.242218,281.432251 135.241226,280.148590 130.124771,278.713379
	C134.693436,278.270935 139.388947,278.190369 144.543945,278.193970
z"/>
    <path fill="#60BC53" opacity="1.000000" stroke="none"
          d="
M123.971832,87.955879
	C124.299408,89.869133 124.626984,91.782394 124.954559,93.695648
	C123.308304,92.470032 121.662056,91.244408 119.668144,89.790894
	C119.716095,89.139847 120.111702,88.716675 121.133514,88.159050
	C122.497093,88.001694 123.234459,87.978790 123.971832,87.955879
z"/>
    <path fill="#70BE4D" opacity="1.000000" stroke="none"
          d="
M110.135818,305.307434
	C113.741623,305.606750 117.593727,306.069855 118.037659,311.451782
	C115.461006,309.758789 112.870575,307.682556 110.135818,305.307434
z"/>
    <path fill="#70BE4D" opacity="1.000000" stroke="none"
          d="
M157.655426,275.626892
	C155.354355,279.626312 151.484634,279.201263 147.298218,278.339417
	C150.448715,277.224518 153.870758,276.383820 157.655426,275.626892
z"/>
    <path fill="#A2CE6E" opacity="1.000000" stroke="none"
          d="
M272.302307,216.155518
	C270.806122,215.980545 269.614685,215.947403 267.975769,215.834320
	C271.742401,213.042236 273.349030,213.570557 278.672241,219.717224
	C276.699249,218.792160 274.653137,217.544754 272.302307,216.155518
z"/>
    <path fill="#70BE4D" opacity="1.000000" stroke="none"
          d="
M114.715240,274.847839
	C113.238945,276.760101 111.811028,277.473999 109.804443,275.068451
	C108.439209,273.431732 106.149986,272.565826 104.099129,271.032104
	C107.438454,272.004913 110.952591,273.300812 114.715240,274.847839
z"/>
    <path fill="#70BE4D" opacity="1.000000" stroke="none"
          d="
M127.671677,277.836273
	C124.483360,279.228882 120.976234,280.508514 118.050491,276.421967
	C121.121666,276.564331 124.244179,277.089294 127.671677,277.836273
z"/>
    <path fill="#73BF68" opacity="1.000000" stroke="none"
          d="
M70.513298,198.312729
	C71.616631,201.106277 72.620148,204.273087 73.368179,207.697998
	C72.212967,204.866043 71.313225,201.776031 70.513298,198.312729
z"/>
    <path fill="#73BF68" opacity="1.000000" stroke="none"
          d="
M116.693817,91.119232
	C117.564873,95.443962 113.894539,95.628639 110.865143,96.792770
	C112.430107,94.880043 114.396355,93.025574 116.693817,91.119232
z"/>
    <path fill="#B7D67C" opacity="1.000000" stroke="none"
          d="
M339.166779,227.701965
	C339.269592,225.036758 339.641510,222.111740 340.348907,219.080627
	C340.268219,221.797089 339.852020,224.619629 339.166779,227.701965
z"/>
    <path fill="#70BE4D" opacity="1.000000" stroke="none"
          d="
M96.879715,266.686096
	C94.389397,265.597595 91.737114,264.213898 89.039871,262.481903
	C91.569191,263.552704 94.143463,264.971771 96.879715,266.686096
z"/>
    <path fill="#B7D67C" opacity="1.000000" stroke="none"
          d="
M309.279846,237.323944
	C309.720276,236.955612 310.081818,236.974548 310.715576,237.002533
	C311.210052,239.482086 311.432281,241.952591 311.400970,244.682648
	C310.498596,242.531876 309.849792,240.121536 309.279846,237.323944
z"/>
    <path fill="#70BE4D" opacity="1.000000" stroke="none"
          d="
M95.560028,289.483154
	C97.310455,291.163055 99.162552,293.186279 101.025040,295.569427
	C99.244186,293.895050 97.452942,291.860748 95.560028,289.483154
z"/>
    <path fill="#73BF68" opacity="1.000000" stroke="none"
          d="
M144.312897,258.579529
	C146.140457,257.784058 148.329697,257.114594 150.753387,256.707703
	C148.883408,257.548645 146.778992,258.127106 144.312897,258.579529
z"/>
    <path fill="#73BF68" opacity="1.000000" stroke="none"
          d="
M154.328125,255.859467
	C154.959854,253.966431 155.932556,252.051804 157.203339,250.037964
	C156.557327,251.905136 155.613205,253.871506 154.328125,255.859467
z"/>
    <path fill="#9BCC69" opacity="1.000000" stroke="none"
          d="
M253.416687,326.133728
	C251.137039,322.521790 253.984039,322.477722 256.661346,322.360809
	C257.100159,322.958557 257.138245,323.199829 257.176331,323.441040
	C256.026031,324.319000 254.875717,325.196960 253.416687,326.133728
z"/>
    <path fill="#73BF68" opacity="1.000000" stroke="none"
          d="
M75.114609,213.339905
	C76.118484,214.981628 77.107979,216.981216 78.117073,219.351196
	C77.124519,217.713638 76.112366,215.705704 75.114609,213.339905
z"/>
    <path fill="#73BF68" opacity="1.000000" stroke="none"
          d="
M134.347534,258.973083
	C135.854202,258.598480 137.627304,258.438538 139.654846,258.514160
	C138.144196,258.895721 136.379074,259.041718 134.347534,258.973083
z"/>
    <path fill="#73BF68" opacity="1.000000" stroke="none"
          d="
M94.848259,241.456940
	C96.391846,242.293762 98.061668,243.447540 99.804596,244.949249
	C98.243301,244.122757 96.608902,242.948334 94.848259,241.456940
z"/>
    <path fill="#71C165" opacity="1.000000" stroke="none"
          d="
M208.474335,93.540894
	C209.098419,96.875130 206.882263,97.093407 203.922546,96.880554
	C205.029648,95.766457 206.579102,94.696831 208.474335,93.540894
z"/>
    <path fill="#70BE4D" opacity="1.000000" stroke="none"
          d="
M105.975075,301.360901
	C108.185516,300.849701 110.325218,300.898102 109.995544,304.605103
	C108.694290,303.893311 107.396957,302.778015 105.975075,301.360901
z"/>
    <path fill="#8BC75A" opacity="1.000000" stroke="none"
          d="
M216.659607,336.985168
	C217.542786,337.137268 218.093109,337.299957 218.809814,337.702057
	C217.556961,338.253571 216.137711,338.565613 214.348328,338.777283
	C214.761047,338.116455 215.543900,337.556091 216.659607,336.985168
z"/>
    <path fill="#73BF68" opacity="1.000000" stroke="none"
          d="
M78.216103,220.239899
	C79.116699,221.110962 80.011024,222.315155 80.813156,223.887589
	C79.883911,223.028229 79.046867,221.800644 78.216103,220.239899
z"/>
    <path fill="#6EBF5F" opacity="1.000000" stroke="none"
          d="
M187.524384,140.547333
	C188.860504,140.937363 190.381073,141.625809 191.932465,142.707764
	C190.545135,142.349426 189.126968,141.597580 187.524384,140.547333
z"/>
    <path fill="#73BF68" opacity="1.000000" stroke="none"
          d="
M82.757401,227.511612
	C83.833664,228.524704 84.937981,229.873642 86.042770,231.576813
	C84.957298,230.569855 83.871376,229.208649 82.757401,227.511612
z"/>
    <path fill="#73BF68" opacity="1.000000" stroke="none"
          d="
M76.434631,144.658844
	C76.155014,146.250504 75.596054,148.050171 74.708923,149.949341
	C74.972267,148.321503 75.563774,146.594193 76.434631,144.658844
z"/>
    <path fill="#70BE4D" opacity="1.000000" stroke="none"
          d="
M101.130112,296.285583
	C102.369217,297.093109 103.675331,298.217010 104.969589,299.723328
	C103.704193,298.937836 102.450653,297.769897 101.130112,296.285583
z"/>
    <path fill="#73BF68" opacity="1.000000" stroke="none"
          d="
M134.694244,79.202408
	C133.783737,80.099731 132.538315,81.000038 130.901733,81.832733
	C131.793488,80.911865 133.076416,80.058624 134.694244,79.202408
z"/>
    <path fill="#73BF68" opacity="1.000000" stroke="none"
          d="
M166.561493,108.125183
	C166.921753,106.872086 167.571899,105.483406 168.563187,104.040382
	C168.220001,105.320557 167.535690,106.655067 166.561493,108.125183
z"/>
    <path fill="#73BF68" opacity="1.000000" stroke="none"
          d="
M157.706726,244.652618
	C157.369217,243.745880 157.170090,242.442673 157.268646,241.045563
	C157.659256,242.053177 157.752182,243.154663 157.706726,244.652618
z"/>
    <path fill="#A2CE6E" opacity="1.000000" stroke="none"
          d="
M282.775665,224.747986
	C281.886444,224.198105 280.984558,223.322449 280.102966,222.093582
	C281.003174,222.634323 281.883087,223.528275 282.775665,224.747986
z"/>
    <path fill="#73BF68" opacity="1.000000" stroke="none"
          d="
M139.769257,76.447762
	C139.773651,77.156433 139.484528,77.815605 138.757004,78.734863
	C137.881363,79.027786 137.444138,79.060646 137.006897,79.093498
	C137.006897,79.093498 136.804779,78.743050 136.723602,78.556305
	C137.586868,77.712463 138.531296,77.055367 139.769257,76.447762
z"/>
    <path fill="#8BC75A" opacity="1.000000" stroke="none"
          d="
M225.633392,335.983582
	C225.985489,335.975189 226.001877,336.387848 226.003754,336.594238
	C224.891541,337.119141 223.777481,337.437653 222.325653,337.660339
	C223.085678,337.040283 224.183487,336.516144 225.633392,335.983582
z"/>
    <path fill="#73BF68" opacity="1.000000" stroke="none"
          d="
M169.462952,103.196854
	C169.625580,102.289627 170.080688,101.219696 170.932800,100.148506
	C170.805008,101.109550 170.280212,102.071854 169.462952,103.196854
z"/>
    <path fill="#A2CE6E" opacity="1.000000" stroke="none"
          d="
M257.488892,323.335327
	C257.138245,323.199829 257.100159,322.958557 257.022949,322.352905
	C256.983856,321.988464 256.994965,321.496033 257.000549,321.249847
	C257.821991,321.015381 258.637878,321.027100 259.863525,321.075836
	C259.449341,321.818420 258.625366,322.523987 257.488892,323.335327
z"/>
    <path fill="#76C25D" opacity="1.000000" stroke="none"
          d="
M206.605042,151.528381
	C207.535446,151.682953 208.654663,152.153229 209.914246,152.996384
	C208.967697,152.860870 207.880783,152.352493 206.605042,151.528381
z"/>
    <path fill="#73BF68" opacity="1.000000" stroke="none"
          d="
M126.682503,84.016418
	C126.998100,84.432320 126.998482,84.873306 126.994293,85.644516
	C126.241997,85.993073 125.494278,86.011398 124.372765,86.013565
	C124.788414,85.345436 125.577858,84.693466 126.682503,84.016418
z"/>
    <path fill="#73BF68" opacity="1.000000" stroke="none"
          d="
M123.983810,87.629906
	C123.234459,87.978790 122.497093,88.001694 121.390778,88.013992
	C121.802704,87.349403 122.583572,86.695412 123.680908,86.019943
	C123.996849,86.433617 123.996323,86.868774 123.983810,87.629906
z"/>
    <path fill="#6EBF5F" opacity="1.000000" stroke="none"
          d="
M182.013245,137.398880
	C182.868698,137.513840 183.878448,137.910248 184.941559,138.661530
	C184.052475,138.571045 183.110001,138.125687 182.013245,137.398880
z"/>
    <path fill="#73BF68" opacity="1.000000" stroke="none"
          d="
M80.745605,224.525177
	C81.430138,224.979950 82.157776,225.757141 82.823502,226.885986
	C82.103966,226.440948 81.446342,225.644287 80.745605,224.525177
z"/>
    <path fill="#73BF68" opacity="1.000000" stroke="none"
          d="
M69.714569,194.195343
	C70.077194,194.528854 70.308296,195.112625 70.346764,195.823425
	C69.963760,195.448837 69.773399,194.947220 69.714569,194.195343
z"/>
    <path fill="#9BCC69" opacity="1.000000" stroke="none"
          d="
M303.053040,220.323547
	C303.643585,220.594330 304.265503,221.193756 304.872925,222.169159
	C304.267059,221.914154 303.675751,221.283173 303.053040,220.323547
z"/>
    <path fill="#85C662" opacity="1.000000" stroke="none"
          d="
M230.122086,165.347443
	C230.615601,165.248184 231.270401,165.398346 231.928497,165.861771
	C231.382309,165.982300 230.832855,165.789597 230.122086,165.347443
z"/>
    <path fill="#71C165" opacity="1.000000" stroke="none"
          d="
M202.683075,97.065063
	C202.440140,97.646675 201.879990,98.268608 200.960876,98.874207
	C201.189911,98.273712 201.777878,97.689545 202.683075,97.065063
z"/>
    <path fill="#73BF68" opacity="1.000000" stroke="none"
          d="
M72.471436,155.651215
	C72.584427,156.237549 72.445686,157.001755 72.039108,157.908600
	C71.920746,157.310516 72.070221,156.569809 72.471436,155.651215
z"/>
    <path fill="#6EBF5F" opacity="1.000000" stroke="none"
          d="
M199.548859,147.491394
	C200.207932,147.539047 201.031708,147.876724 201.927002,148.572357
	C201.236862,148.547348 200.475220,148.164368 199.548859,147.491394
z"/>
    <path fill="#6EBF5F" opacity="1.000000" stroke="none"
          d="
M195.210190,145.149994
	C195.672180,145.074081 196.310654,145.235352 196.978973,145.682571
	C196.468124,145.774750 195.927383,145.580963 195.210190,145.149994
z"/>
    <path fill="#73BF68" opacity="1.000000" stroke="none"
          d="
M86.099304,232.271942
	C86.686440,232.480072 87.304718,232.996918 87.911377,233.851257
	C87.309998,233.652740 86.720230,233.116699 86.099304,232.271942
z"/>
    <path fill="#73BF68" opacity="1.000000" stroke="none"
          d="
M99.392540,107.774719
	C99.278786,108.409691 98.872536,109.124039 98.098007,109.794334
	C98.186501,109.118225 98.643272,108.486160 99.392540,107.774719
z"/>
    <path fill="#9BCC69" opacity="1.000000" stroke="none"
          d="
M329.055145,144.672394
	C328.581543,144.413239 328.089020,143.858032 327.840393,143.133789
	C328.401581,143.435272 328.718903,143.905807 329.055145,144.672394
z"/>
    <path fill="#73BF68" opacity="1.000000" stroke="none"
          d="
M102.707306,247.512466
	C103.335342,247.559555 104.118324,247.884766 104.973373,248.554321
	C104.317711,248.529312 103.589973,248.159958 102.707306,247.512466
z"/>
    <path fill="#85C771" opacity="1.000000" stroke="none"
          d="
M79.380798,263.331909
	C79.604790,263.795227 79.853600,264.566284 80.053757,265.660950
	C79.805275,265.202911 79.605453,264.421295 79.380798,263.331909
z"/>
    <path fill="#8BC75A" opacity="1.000000" stroke="none"
          d="
M177.607758,336.953247
	C177.994858,336.944702 178.022415,337.439728 178.026794,337.687500
	C177.145981,337.832886 176.260803,337.730499 175.141907,337.384033
	C175.679016,337.080566 176.449829,337.021210 177.607758,336.953247
z"/>
    <path fill="#73BF68" opacity="1.000000" stroke="none"
          d="
M77.532867,141.820084
	C77.669937,142.272064 77.547752,142.947968 77.124039,143.815247
	C76.972893,143.352417 77.123253,142.698212 77.532867,141.820084
z"/>
    <path fill="#73BF68" opacity="1.000000" stroke="none"
          d="
M73.850983,210.176483
	C74.219040,210.319763 74.511932,210.706467 74.736908,211.350204
	C74.371269,211.211472 74.073547,210.815689 73.850983,210.176483
z"/>
    <path fill="#85C771" opacity="1.000000" stroke="none"
          d="
M77.999420,261.085449
	C78.366554,261.204987 78.643303,261.533539 78.869522,262.089050
	C78.515671,261.975494 78.212349,261.634949 77.999420,261.085449
z"/>
    <path fill="#73BF68" opacity="1.000000" stroke="none"
          d="
M100.751503,106.148788
	C100.785866,106.592255 100.539459,107.133911 99.979225,107.719635
	C99.933838,107.258125 100.202286,106.752556 100.751503,106.148788
z"/>
    <path fill="#73BF68" opacity="1.000000" stroke="none"
          d="
M97.520905,109.863922
	C97.674210,110.081078 97.569817,110.407097 97.235718,110.867554
	C97.091736,110.658920 97.177467,110.315849 97.520905,109.863922
z"/>
    <path fill="#8BC75A" opacity="1.000000" stroke="none"
          d="
M246.365265,330.087646
	C246.048798,329.973206 246.036774,329.780884 246.015808,329.299774
	C246.263107,329.029114 246.519394,329.047241 247.161713,329.097839
	C247.255081,329.423431 246.962387,329.716553 246.365265,330.087646
z"/>
    <path fill="#70BE4D" opacity="1.000000" stroke="none"
          d="
M103.446930,270.525726
	C103.197983,270.673370 102.755852,270.520020 102.119934,270.062134
	C102.368683,269.913300 102.811218,270.069000 103.446930,270.525726
z"/>
    <path fill="#8BC75A" opacity="1.000000" stroke="none"
          d="
M178.161133,338.101257
	C178.095291,337.952759 178.515167,337.999420 178.613068,338.032318
	C178.710968,338.065216 178.536484,338.334167 178.536484,338.334167
	C178.536484,338.334167 178.226990,338.249725 178.161133,338.101257
z"/>
    <path fill="#73BF68" opacity="1.000000" stroke="none"
          d="
M73.419144,152.599396
	C73.596733,152.792770 73.546677,153.195557 73.257019,153.799347
	C73.075432,153.603165 73.133461,153.205994 73.419144,152.599396
z"/>
    <path fill="#6EBF5F" opacity="1.000000" stroke="none"
          d="
M180.813507,136.372208
	C181.049164,136.267899 181.381042,136.443344 181.824081,136.886536
	C181.593399,136.986847 181.251556,136.819397 180.813507,136.372208
z"/>
    <path fill="#85C554" opacity="1.000000" stroke="none"
          d="
M232.591553,235.781403
	C232.639893,236.031036 232.372604,236.386765 231.762604,236.810501
	C231.705231,236.548157 231.990570,236.217819 232.591553,235.781403
z"/>
    <path fill="#70BE4D" opacity="1.000000" stroke="none"
          d="
M101.486832,269.521118
	C101.225456,269.650543 100.796066,269.480286 100.228851,268.981262
	C100.500282,268.842163 100.909554,269.031769 101.486832,269.521118
z"/>
    <path fill="#70BE4D" opacity="1.000000" stroke="none"
          d="
M80.069290,266.258118
	C80.318787,266.210327 80.561974,266.444183 80.873840,266.925659
	C80.649345,266.962067 80.356155,266.750916 80.069290,266.258118
z"/>
    <path fill="#9BCC69" opacity="1.000000" stroke="none"
          d="
M305.135132,224.300232
	C305.346405,224.285645 305.585785,224.542358 305.868713,225.068649
	C305.662598,225.082657 305.412933,224.827072 305.135132,224.300232
z"/>
    <path fill="#B7D67C" opacity="1.000000" stroke="none"
          d="
M308.850586,234.264221
	C309.029572,234.277252 309.185028,234.544083 309.166962,234.905426
	C308.937958,234.839279 308.882477,234.678650 308.850586,234.264221
z"/>
    <path fill="#61BC4C" opacity="1.000000" stroke="none"
          d="
M156.732422,122.891136
	C156.698868,135.368454 156.354645,147.714554 156.007629,160.528946
	C155.380783,161.450150 154.163010,162.007019 154.221405,162.340469
	C155.147934,167.632431 152.108307,170.468597 147.322632,172.591537
	C145.148071,170.566742 143.647903,171.858490 140.835663,173.882172
	C137.553314,176.244186 132.480911,176.360260 128.117065,176.902527
	C124.521645,177.349289 120.812088,177.185135 117.183571,176.901810
	C115.790955,176.793060 113.648491,175.894623 113.286194,174.854813
	C111.994759,171.148300 109.325844,170.951065 106.153862,170.944153
	C104.041878,170.939545 101.931053,170.402115 99.410088,170.050842
	C99.402626,169.320084 99.663780,168.211212 100.227692,168.026459
	C112.597588,163.973511 117.209763,151.869202 125.582497,143.688019
	C125.921158,143.357101 126.217613,142.830551 126.258820,142.370529
	C126.869064,135.557083 131.076172,134.179901 137.017944,134.871658
	C137.997177,134.985672 139.140076,133.418930 140.254990,132.703201
	C142.224304,131.438950 144.230286,130.231827 146.609833,129.000092
	C147.002029,129.824478 146.799896,130.720917 147.055984,131.458191
	C147.454788,132.606339 147.944382,134.259277 148.802109,134.567749
	C149.745972,134.907211 151.583923,134.307465 152.225037,133.486465
	C152.810959,132.736115 152.622787,131.039536 152.246689,129.941101
	C150.885117,125.964378 152.539230,122.971771 156.732422,122.891136
z"/>
    <path fill="#60BC53" opacity="1.000000" stroke="none"
          d="
M128.045471,95.393539
	C128.287582,95.790314 128.285889,96.185051 128.255615,96.577568
	C128.254761,96.588600 127.948784,96.576111 127.785088,96.574585
	C127.789284,96.180115 127.793480,95.785652 128.045471,95.393539
z"/>
    <path fill="#5EBB4D" opacity="1.000000" stroke="none"
          d="
M136.999756,79.450661
	C137.444138,79.060646 137.881363,79.027786 138.647003,78.986557
	C139.306076,80.023933 140.085297,81.189766 139.846176,82.082985
	C139.586746,83.052109 138.379257,83.767433 137.585175,84.593445
	C137.263000,83.644196 136.825623,82.714386 136.660873,81.738564
	C136.558289,81.130974 136.867966,80.453781 136.999756,79.450661
z"/>
    <path fill="#73BF68" opacity="1.000000" stroke="none"
          d="
M164.399353,101.955887
	C164.792908,101.715927 165.184265,101.717705 165.573441,101.747681
	C165.584229,101.748512 165.571716,102.051842 165.570053,102.214111
	C165.178986,102.209915 164.787903,102.205727 164.399353,101.955887
z"/>
    <path fill="#7BC463" opacity="1.000000" stroke="none"
          d="
M275.735016,133.780624
	C276.268005,134.493637 276.528839,134.987610 276.742737,136.090881
	C276.464325,138.467178 276.232788,140.234192 276.001221,142.001221
	C270.910370,147.488907 265.961700,153.121552 260.623810,158.357437
	C259.365875,159.591354 256.796478,159.488342 254.416428,159.999573
	C254.797318,155.949692 251.395325,151.641495 254.770874,147.671097
	C255.025757,147.371307 254.234665,145.846420 253.613174,145.191467
	C249.340790,140.689072 249.086639,135.703827 251.307175,130.166855
	C251.950882,128.561768 251.791016,126.634415 251.999451,124.428162
	C251.999619,123.556396 251.999847,123.111267 252.384506,122.333298
	C254.370911,122.691681 255.953979,123.432007 257.580994,124.058220
	C258.828796,124.538498 260.209961,125.365891 261.395264,125.177933
	C264.305481,124.716454 267.136841,123.757767 269.999939,122.999084
	C271.820923,126.519920 273.641876,130.040756 275.735016,133.780624
z"/>
    <path fill="#86C767" opacity="1.000000" stroke="none"
          d="
M276.305450,142.149567
	C276.232788,140.234192 276.464325,138.467178 276.850372,136.349472
	C284.377014,135.999146 291.749146,135.999512 299.561249,135.999939
	C302.177307,143.678711 299.119873,149.946777 294.767456,155.935791
	C294.158325,156.773972 294.240082,158.114243 294.002228,159.610443
	C293.213654,160.316330 292.424896,160.633865 291.316223,160.975708
	C290.172394,160.979050 289.329620,161.063782 288.527344,160.920990
	C279.142853,159.250687 276.540161,156.252655 280.776489,145.462433
	C279.434296,144.443115 278.022003,143.370529 276.305450,142.149567
z"/>
    <path fill="#75C369" opacity="1.000000" stroke="none"
          d="
M269.960938,122.632812
	C267.136841,123.757767 264.305481,124.716454 261.395264,125.177933
	C260.209961,125.365891 258.828796,124.538498 257.580994,124.058220
	C255.953979,123.432007 254.370911,122.691681 252.384766,121.999466
	C253.340378,118.265160 252.106888,115.124062 250.432236,111.702370
	C249.574631,109.950119 250.795578,107.216034 250.964798,104.917412
	C251.216431,101.499123 249.720001,97.234650 255.249634,96.526901
	C254.954987,95.351906 254.908325,93.311066 254.325027,93.144005
	C250.830902,92.143311 250.816681,89.605965 251.000000,86.420929
	C254.558487,86.414841 258.116974,86.826622 262.172516,87.295929
	C261.400085,89.394424 260.860260,90.860909 259.954071,93.322716
	C263.878448,94.135689 267.612183,94.909164 271.098236,95.631332
	C270.182922,98.870148 268.822205,102.190079 268.418610,105.622543
	C268.135132,108.033577 269.190308,110.592445 269.578857,113.095985
	C269.783112,114.412018 269.905212,115.748970 269.946411,117.080124
	C269.999817,118.807022 269.935577,120.537560 269.960938,122.632812
z"/>
</svg>